<svg width="373" height="171" viewBox="0 0 373 171" fill="none" xmlns="http://www.w3.org/2000/svg">
<path d="M188.753 22.0078C127.654 22.0078 32 6 32 6V65H342V6C342 6 249.851 22.0078 188.753 22.0078Z" fill="#4E372B"/>
<path d="M372.944 170.974H0L46.491 5.58911C82.75 40.5831 132.084 62.1141 186.467 62.1141C240.766 62.1141 290.038 40.6451 326.275 5.75613L372.944 170.974Z" fill="#A0815C"/>
<path d="M326.5 6.00006L345.139 130.21H271.129V145.889H349.568L352.226 155.296H20.694L23.337 145.889H100.759V130.21H27.745L46.5 5.05206L31.407 0.811035L0.000976562 170.974H372.946L341.589 1.73807L334.044 3.86906L326.5 6.00006Z" fill="#715648"/>
<path d="M260.677 130.21H234.547V145.888H260.677V130.21Z" fill="#715648"/>
<path d="M102.551 98.9944C102.782 98.7632 102.782 98.3885 102.551 98.1574L95.9245 91.5313C95.6933 91.3001 95.3186 91.3001 95.0875 91.5313L88.4614 98.1574C88.2302 98.3885 88.2302 98.7632 88.4614 98.9944L95.0875 105.62C95.3186 105.852 95.6933 105.852 95.9245 105.62L102.551 98.9944Z" fill="#47CB8C"/>
<path d="M96.6575 88.7212C96.6578 88.905 96.7257 89.124 96.8557 89.254L104.856 97.2547C104.986 97.3848 105.206 97.4527 105.39 97.4526L113.592 97.4445C113.82 97.4445 114.031 97.3027 114.114 97.1022C114.197 96.9018 114.166 96.6596 114.004 96.4981L97.6121 80.1061C97.4506 79.9446 97.2124 79.9093 97.012 79.9922C96.8116 80.0752 96.6723 80.2834 96.6724 80.5118L96.6575 88.7212Z" fill="#53E19D"/>
<path d="M113.891 99.8844C113.79 99.7831 113.649 99.7263 113.497 99.7264L105.387 99.7072C105.204 99.7072 104.981 99.772 104.851 99.9022L96.8505 107.903C96.7206 108.033 96.6553 108.254 96.6551 108.439L96.6645 116.539C96.6644 116.691 96.7249 116.835 96.8263 116.936C96.9557 117.066 97.1436 117.121 97.3221 117.076C97.4192 117.052 97.5142 117.004 97.5889 116.929L113.878 100.641C114.093 100.425 114.098 100.092 113.891 99.8844Z" fill="#53B894"/>
<path d="M94.392 108.45C94.392 108.266 94.315 108.056 94.1849 107.926L86.1842 99.9254C86.0543 99.7955 85.8444 99.7186 85.6599 99.7184L77.5657 99.7219C77.3373 99.7218 77.1287 99.8615 77.0457 100.062C76.9628 100.262 76.9964 100.502 77.1579 100.664L93.4466 116.952C93.6081 117.114 93.8462 117.149 94.0466 117.066C94.2471 116.983 94.3818 116.78 94.3818 116.551L94.392 108.45Z" fill="#3A9F7B"/>
<path d="M86.1789 97.2315L94.1797 89.2307C94.31 89.1004 94.3895 88.8926 94.3892 88.709L94.387 80.5126C94.387 80.3609 94.3052 80.1953 94.2038 80.0939C93.9964 79.8867 93.6389 79.8672 93.4232 80.0829L77.0312 96.4749C76.8154 96.6907 76.8728 97.0311 77.0801 97.2384L77.0868 97.2451C77.1882 97.3464 77.3172 97.4194 77.469 97.4193L85.6625 97.4325C85.8465 97.4325 86.0488 97.3616 86.1789 97.2315Z" fill="#53B894"/>
<path d="M282.551 98.9944C282.782 98.7632 282.782 98.3885 282.551 98.1574L275.924 91.5313C275.693 91.3001 275.319 91.3001 275.087 91.5313L268.461 98.1574C268.23 98.3885 268.23 98.7632 268.461 98.9944L275.087 105.62C275.319 105.852 275.693 105.852 275.924 105.62L282.551 98.9944Z" fill="#47CB8C"/>
<path d="M276.658 88.7212C276.658 88.905 276.726 89.124 276.856 89.254L284.856 97.2547C284.986 97.3848 285.206 97.4527 285.39 97.4526L293.592 97.4445C293.82 97.4445 294.031 97.3027 294.114 97.1022C294.197 96.9018 294.166 96.6596 294.004 96.4981L277.612 80.1061C277.451 79.9446 277.212 79.9093 277.012 79.9922C276.812 80.0752 276.672 80.2834 276.672 80.5118L276.658 88.7212Z" fill="#53E19D"/>
<path d="M293.891 99.8844C293.79 99.7831 293.649 99.7263 293.497 99.7264L285.387 99.7072C285.204 99.7072 284.981 99.772 284.851 99.9022L276.85 107.903C276.721 108.033 276.655 108.254 276.655 108.439L276.665 116.539C276.664 116.691 276.725 116.835 276.826 116.936C276.956 117.066 277.144 117.121 277.322 117.076C277.419 117.052 277.514 117.004 277.589 116.929L293.878 100.641C294.093 100.425 294.098 100.092 293.891 99.8844Z" fill="#53B894"/>
<path d="M274.392 108.45C274.392 108.266 274.315 108.056 274.185 107.926L266.184 99.9254C266.054 99.7955 265.844 99.7186 265.66 99.7184L257.566 99.7219C257.337 99.7218 257.129 99.8615 257.046 100.062C256.963 100.262 256.996 100.502 257.158 100.664L273.447 116.952C273.608 117.114 273.846 117.149 274.047 117.066C274.247 116.983 274.382 116.78 274.382 116.551L274.392 108.45Z" fill="#3A9F7B"/>
<path d="M266.179 97.2315L274.18 89.2307C274.31 89.1004 274.39 88.8926 274.389 88.709L274.387 80.5126C274.387 80.3609 274.305 80.1953 274.204 80.0939C273.996 79.8867 273.639 79.8672 273.423 80.0829L257.031 96.4749C256.815 96.6907 256.873 97.0311 257.08 97.2384L257.087 97.2451C257.188 97.3464 257.317 97.4194 257.469 97.4193L265.662 97.4325C265.846 97.4325 266.049 97.3616 266.179 97.2315Z" fill="#53B894"/>
<path d="M186.214 107.194C185.876 106.856 185.328 106.856 184.99 107.194L175.296 116.888C174.958 117.226 174.958 117.774 175.296 118.112L184.99 127.806C185.328 128.144 185.876 128.144 186.214 127.806L195.908 118.112C196.246 117.774 196.246 117.226 195.908 116.888L186.214 107.194Z" fill="#CB4747"/>
<path d="M171.185 115.815C171.454 115.815 171.774 115.716 171.964 115.525L183.669 103.821C183.86 103.63 183.959 103.31 183.959 103.04L183.947 91.0411C183.947 90.7069 183.739 90.3985 183.446 90.2771C183.153 90.1558 182.799 90.2016 182.562 90.4378L158.581 114.419C158.345 114.655 158.293 115.004 158.415 115.297C158.536 115.59 158.841 115.794 159.175 115.794L171.185 115.815Z" fill="#B85353"/>
<path d="M187.517 90.6036C187.368 90.7518 187.285 90.9572 187.285 91.1794L187.257 103.044C187.257 103.313 187.352 103.638 187.543 103.828L199.247 115.533C199.437 115.723 199.762 115.819 200.031 115.819L211.882 115.805C212.104 115.805 212.315 115.717 212.463 115.569C212.652 115.379 212.733 115.104 212.668 114.843C212.633 114.701 212.562 114.562 212.453 114.453L188.623 90.6231C188.307 90.3076 187.82 90.3003 187.517 90.6036Z" fill="#E15353"/>
<path d="M200.048 119.13C199.779 119.13 199.471 119.243 199.281 119.433L187.576 131.138C187.386 131.328 187.274 131.635 187.273 131.905L187.279 143.746C187.279 144.081 187.483 144.386 187.776 144.507C188.069 144.628 188.42 144.579 188.656 144.343L212.486 120.513C212.723 120.277 212.774 119.928 212.653 119.635C212.532 119.342 212.234 119.145 211.899 119.145L200.048 119.13Z" fill="#B85353"/>
<path d="M183.635 131.145L171.93 119.44C171.74 119.25 171.436 119.133 171.167 119.134L159.176 119.137C158.954 119.137 158.712 119.257 158.563 119.405C158.26 119.709 158.232 120.231 158.547 120.547L182.528 144.528C182.844 144.844 183.342 144.76 183.645 144.456L183.655 144.447C183.803 144.298 183.91 144.11 183.91 143.887L183.929 131.901C183.929 131.632 183.825 131.336 183.635 131.145Z" fill="#9F3A3A"/>
</svg>
