<svg width="411" height="411" viewBox="0 0 411 411" fill="none" xmlns="http://www.w3.org/2000/svg">
<path d="M406.331 205.535C406.331 316.358 316.491 406.2 205.666 406.2C94.8411 406.2 5 316.358 5 205.535C5 94.7103 94.8411 4.86951 205.666 4.86951C316.491 4.86951 406.331 94.7103 406.331 205.535Z" fill="#E0E0E2" stroke="#F2F2F2" stroke-width="9"/>
<path d="M357.954 179.408C356.107 168.72 353.128 158.193 349.102 148.125L334.101 154.131C337.709 163.155 340.379 172.586 342.034 182.164L357.954 179.408Z" fill="white"/>
<path d="M340.812 130.648C327.276 106.176 307.26 85.8122 282.93 71.7553C250.254 52.8765 211.919 46.6112 174.978 54.116L178.192 69.96C211.263 63.2428 245.593 68.8526 274.852 85.7565C296.641 98.3451 314.563 116.576 326.679 138.479L340.812 130.648Z" fill="white"/>
<path d="M99.4314 240.031C114.809 240.031 127.275 227.565 127.275 212.188C127.275 227.565 139.741 240.031 155.119 240.031C139.741 240.031 127.275 252.498 127.275 267.875C127.275 252.498 114.809 240.031 99.4314 240.031Z" fill="#FFF4CA"/>
<path d="M192.244 261.687C216.165 261.687 235.557 242.296 235.557 218.375C235.557 242.296 254.949 261.687 278.87 261.687C254.949 261.687 235.557 281.079 235.557 305C235.556 281.079 216.165 261.687 192.244 261.687Z" fill="#FFF4CA"/>
<path d="M133.463 144.125C152.258 144.125 167.494 128.889 167.494 110.094C167.494 128.889 182.73 144.125 201.525 144.125C182.73 144.125 167.494 159.361 167.494 178.156C167.494 159.361 152.258 144.125 133.463 144.125Z" fill="#FFF4CA"/>
<path d="M130.369 185.891C138.058 185.891 144.291 179.658 144.291 171.969C144.291 179.658 150.524 185.891 158.213 185.891C150.524 185.891 144.291 192.123 144.291 199.812C144.291 192.124 138.057 185.891 130.369 185.891Z" fill="#FFE682"/>
<path d="M266.494 187.438C275.037 187.438 281.963 180.513 281.963 171.969C281.963 180.513 288.888 187.438 297.431 187.438C288.888 187.438 281.963 194.363 281.963 202.907C281.963 194.363 275.037 187.438 266.494 187.438Z" fill="#FFE682"/>
<path d="M192.244 202.906C200.788 202.906 207.713 195.981 207.713 187.438C207.713 195.981 214.638 202.906 223.182 202.906C214.638 202.906 207.713 209.832 207.713 218.375C207.713 209.832 200.787 202.906 192.244 202.906Z" fill="#FFE682"/>
<path d="M99.4314 125.542C107.975 125.542 114.9 118.616 114.9 110.073C114.9 118.616 121.826 125.542 130.369 125.542C121.826 125.542 114.9 132.467 114.9 141.011C114.9 132.467 107.975 125.542 99.4314 125.542Z" fill="#FFE682"/>
<path d="M223.181 122.469C231.725 122.469 238.65 115.543 238.65 107C238.65 115.543 245.576 122.469 254.119 122.469C245.576 122.469 238.65 129.394 238.65 137.937C238.65 129.394 231.725 122.469 223.181 122.469Z" fill="#FFE682"/>
<path d="M152.025 289.531C160.569 289.531 167.494 282.606 167.494 274.062C167.494 282.606 174.42 289.531 182.963 289.531C174.42 289.531 167.494 296.457 167.494 305C167.495 296.457 160.568 289.531 152.025 289.531Z" fill="#FFE682"/>
<path d="M147.346 199.813H141.236C141.236 193.821 136.361 188.947 130.369 188.947V182.836C136.361 182.836 141.236 177.961 141.236 171.969H147.346C147.346 177.961 152.221 182.836 158.213 182.836V188.947C152.221 188.947 147.346 193.821 147.346 199.813ZM140.076 185.891C141.716 187.038 143.144 188.466 144.291 190.106C145.438 188.466 146.866 187.037 148.506 185.891C146.866 184.744 145.438 183.316 144.291 181.676C143.144 183.316 141.716 184.744 140.076 185.891Z" fill="#FFE682"/>
<path d="M130.331 267.875H124.22C124.22 254.207 113.1 243.087 99.4314 243.087V236.976C113.1 236.976 124.22 225.856 124.22 212.188H130.331C130.331 225.856 141.45 236.976 155.119 236.976V243.087C141.451 243.087 130.331 254.207 130.331 267.875ZM112.824 240.031C119.12 243.072 124.234 248.186 127.276 254.483C130.316 248.186 135.431 243.072 141.727 240.031C135.431 236.991 130.317 231.876 127.276 225.58C124.234 231.876 119.12 236.99 112.824 240.031Z" fill="#FFE682"/>
<path d="M285.018 202.906H278.907C278.907 196.062 273.339 190.493 266.494 190.493V184.382C273.338 184.382 278.907 178.814 278.907 171.969H285.018C285.018 178.813 290.587 184.382 297.431 184.382V190.493C290.587 190.493 285.018 196.062 285.018 202.906ZM276.675 187.438C278.775 188.824 280.576 190.626 281.962 192.725C283.348 190.626 285.15 188.824 287.249 187.438C285.15 186.052 283.348 184.25 281.962 182.151C280.577 184.249 278.775 186.051 276.675 187.438Z" fill="#FFE682"/>
<path d="M210.768 218.375H204.657C204.657 211.531 199.089 205.962 192.244 205.962V199.851C199.088 199.851 204.657 194.283 204.657 187.438H210.768C210.768 194.282 216.336 199.851 223.181 199.851V205.962C216.337 205.962 210.768 211.531 210.768 218.375ZM202.425 202.906C204.525 204.292 206.326 206.094 207.712 208.193C209.098 206.094 210.9 204.292 212.999 202.906C210.9 201.52 209.098 199.718 207.712 197.62C206.327 199.718 204.525 201.52 202.425 202.906Z" fill="#FFE682"/>
<path d="M117.956 141.011H111.845C111.845 134.166 106.276 128.597 99.4314 128.597V122.487C106.276 122.487 111.845 116.918 111.845 110.073H117.956C117.956 116.918 123.524 122.487 130.369 122.487V128.597C123.524 128.597 117.956 134.166 117.956 141.011ZM109.613 125.542C111.712 126.928 113.514 128.73 114.9 130.829C116.286 128.73 118.088 126.928 120.187 125.542C118.088 124.156 116.286 122.354 114.9 120.255C113.514 122.354 111.712 124.156 109.613 125.542Z" fill="#FFE682"/>
<path d="M241.706 137.938H235.595C235.595 131.093 230.026 125.525 223.181 125.525V119.413C230.026 119.413 235.595 113.845 235.595 107H241.706C241.706 113.845 247.274 119.413 254.119 119.413V125.524C247.274 125.524 241.706 131.093 241.706 137.938ZM233.363 122.469C235.462 123.855 237.264 125.657 238.65 127.756C240.036 125.656 241.838 123.855 243.937 122.469C241.838 121.083 240.036 119.281 238.65 117.182C237.264 119.281 235.462 121.082 233.363 122.469Z" fill="#FFE682"/>
<path d="M170.55 305H164.439C164.439 298.155 158.87 292.587 152.025 292.587V286.476C158.87 286.476 164.439 280.907 164.439 274.062H170.55C170.55 280.907 176.118 286.476 182.963 286.476V292.587C176.118 292.587 170.55 298.155 170.55 305ZM162.207 289.531C164.306 290.917 166.107 292.719 167.493 294.818C168.879 292.719 170.682 290.917 172.78 289.531C170.681 288.145 168.879 286.343 167.493 284.244C166.107 286.343 164.306 288.145 162.207 289.531Z" fill="#FFE682"/>
<path d="M238.612 305H232.501C232.501 282.802 214.442 264.743 192.244 264.743V258.632C214.442 258.632 232.501 240.573 232.501 218.375H238.612C238.612 240.573 256.671 258.632 278.869 258.632V264.743C256.671 264.743 238.612 282.802 238.612 305ZM208.803 261.688C221.071 266.394 230.85 276.173 235.556 288.441C240.263 276.173 250.042 266.394 262.31 261.688C250.042 256.981 240.263 247.202 235.556 234.934C230.85 247.202 221.071 256.981 208.803 261.688Z" fill="#FFE682"/>
<path d="M170.55 178.156H164.439C164.439 161.076 150.543 147.18 133.464 147.18V141.07C150.544 141.07 164.439 127.174 164.439 110.094H170.55C170.55 127.174 184.446 141.07 201.525 141.07V147.18C184.445 147.18 170.55 161.076 170.55 178.156ZM148.203 144.125C156.82 147.872 163.747 154.799 167.494 163.416C171.241 154.798 178.168 147.872 186.785 144.125C178.167 140.378 171.241 133.451 167.494 124.834C163.747 133.451 156.82 140.378 148.203 144.125Z" fill="#FFE682"/>
<path d="M50.8564 245.637C52.7042 256.325 55.6822 266.852 59.7082 276.921L74.7085 270.914C71.101 261.89 68.431 252.46 66.7761 242.882L50.8564 245.637Z" fill="white" fill-opacity="0.6"/>
<path d="M67.9983 294.397C81.5354 318.869 101.551 339.233 125.881 353.289C158.556 372.169 196.891 378.435 233.834 370.929L230.619 355.086C197.547 361.802 163.217 356.193 133.959 339.288C112.17 326.699 94.2482 308.469 82.132 286.566L67.9983 294.397Z" fill="white" fill-opacity="0.6"/>
</svg>
